<svg width="33" height="36" viewBox="0 0 33 36" fill="none" xmlns="http://www.w3.org/2000/svg">
<mask id="path-1-inside-1_1_34" fill="white">
<path d="M17.4221 11.8457C17.4221 11.5377 17.2997 11.2423 17.082 11.0245C16.8642 10.8067 16.5688 10.6843 16.2608 10.6843C15.9528 10.6843 15.6574 10.8067 15.4396 11.0245C15.2218 11.2423 15.0994 11.5377 15.0994 11.8457V18.5814H8.13137C7.82337 18.5814 7.52797 18.7038 7.31018 18.9216C7.09239 19.1394 6.97003 19.4348 6.97003 19.7428C6.97003 20.0508 7.09239 20.3462 7.31018 20.564C7.52797 20.7818 7.82337 20.9041 8.13137 20.9041H16.2608C16.5688 20.9041 16.8642 20.7818 17.082 20.564C17.2997 20.3462 17.4221 20.0508 17.4221 19.7428V11.8457Z"/>
</mask>
<path d="M17.4221 11.8457C17.4221 11.5377 17.2997 11.2423 17.082 11.0245C16.8642 10.8067 16.5688 10.6843 16.2608 10.6843C15.9528 10.6843 15.6574 10.8067 15.4396 11.0245C15.2218 11.2423 15.0994 11.5377 15.0994 11.8457V18.5814H8.13137C7.82337 18.5814 7.52797 18.7038 7.31018 18.9216C7.09239 19.1394 6.97003 19.4348 6.97003 19.7428C6.97003 20.0508 7.09239 20.3462 7.31018 20.564C7.52797 20.7818 7.82337 20.9041 8.13137 20.9041H16.2608C16.5688 20.9041 16.8642 20.7818 17.082 20.564C17.2997 20.3462 17.4221 20.0508 17.4221 19.7428V11.8457Z" fill="white"/>
<path d="M15.0994 18.5814V22.5814H19.0994V18.5814H15.0994ZM6.97003 19.7428H10.97H6.97003ZM21.4221 11.8457C21.4221 10.4768 20.8783 9.16399 19.9104 8.19605L14.2535 13.8529C13.7212 13.3205 13.4221 12.5985 13.4221 11.8457H21.4221ZM19.9104 8.19605C18.9424 7.22811 17.6296 6.68433 16.2608 6.68433V14.6843C15.5079 14.6843 14.7859 14.3853 14.2535 13.8529L19.9104 8.19605ZM16.2608 6.68433C14.8919 6.68433 13.5791 7.22811 12.6111 8.19605L18.268 13.8529C17.7356 14.3853 17.0136 14.6843 16.2608 14.6843V6.68433ZM12.6111 8.19605C11.6432 9.16399 11.0994 10.4768 11.0994 11.8457H19.0994C19.0994 12.5985 18.8003 13.3206 18.268 13.8529L12.6111 8.19605ZM11.0994 11.8457V18.5814H19.0994V11.8457H11.0994ZM15.0994 14.5814H8.13137V22.5814H15.0994V14.5814ZM8.13137 14.5814C6.76251 14.5814 5.4497 15.1252 4.48175 16.0932L10.1386 21.75C9.60625 22.2824 8.88422 22.5814 8.13137 22.5814V14.5814ZM4.48175 16.0932C3.51381 17.0611 2.97003 18.3739 2.97003 19.7428H10.97C10.97 20.4956 10.671 21.2177 10.1386 21.75L4.48175 16.0932ZM2.97003 19.7428C2.97003 21.1117 3.51381 22.4245 4.48175 23.3924L10.1386 17.7356C10.671 18.2679 10.97 18.9899 10.97 19.7428H2.97003ZM4.48175 23.3924C5.4497 24.3603 6.76251 24.9041 8.13137 24.9041V16.9041C8.88422 16.9041 9.60625 17.2032 10.1386 17.7356L4.48175 23.3924ZM8.13137 24.9041H16.2608V16.9041H8.13137V24.9041ZM16.2608 24.9041C17.6296 24.9041 18.9424 24.3604 19.9104 23.3924L14.2535 17.7356C14.7859 17.2032 15.5079 16.9041 16.2608 16.9041V24.9041ZM19.9104 23.3924C20.8783 22.4245 21.4221 21.1116 21.4221 19.7428H13.4221C13.4221 18.9899 13.7212 18.2679 14.2535 17.7356L19.9104 23.3924ZM21.4221 19.7428V11.8457H13.4221V19.7428H21.4221Z" fill="white" mask="url(#path-1-inside-1_1_34)"/>
<mask id="path-3-inside-2_1_34" fill="white">
<path d="M12.7768 1.16134C12.7768 0.853334 12.8991 0.557942 13.1169 0.340149C13.3347 0.122355 13.6301 0 13.9381 0H18.5835C18.8915 0 19.1869 0.122355 19.4046 0.340149C19.6224 0.557942 19.7448 0.853334 19.7448 1.16134C19.7448 1.46935 19.6224 1.76474 19.4046 1.98253C19.1869 2.20033 18.8915 2.32268 18.5835 2.32268V3.64661C21.7423 4.10186 24.6085 5.4583 26.9079 7.45581C26.9171 7.44563 26.9264 7.43556 26.9358 7.42561L27.758 6.60338L26.9358 5.78348C26.7177 5.56572 26.5951 5.27025 26.5949 4.96207C26.5947 4.65389 26.7169 4.35825 26.9347 4.14018C27.1524 3.92211 27.4479 3.79948 27.7561 3.79926C28.0642 3.79904 28.3599 3.92126 28.578 4.13902L31.8622 7.42561C31.9731 7.53274 32.0616 7.66089 32.1225 7.80258C32.1833 7.94427 32.2154 8.09666 32.2167 8.25086C32.2181 8.40506 32.1887 8.55799 32.1303 8.70071C32.0719 8.84344 31.9857 8.9731 31.8766 9.08214C31.7676 9.19118 31.6379 9.27742 31.4952 9.33581C31.3525 9.3942 31.1995 9.42359 31.0453 9.42225C30.8911 9.42091 30.7387 9.38887 30.5971 9.32801C30.4554 9.26714 30.3272 9.17867 30.2201 9.06775L29.4002 8.24552L28.578 9.06775C28.568 9.07721 28.558 9.0865 28.5478 9.09562C30.9127 11.8256 32.3012 15.2653 32.4943 18.872C32.6874 22.4787 31.6741 26.047 29.6142 29.0139C27.5542 31.9807 24.5651 34.1772 21.1183 35.2568C17.6716 36.3363 13.9635 36.2374 10.5792 34.9757C7.19485 33.714 4.32701 31.3613 2.42817 28.2888C0.529337 25.2164 -0.29238 21.5991 0.0926842 18.0079C0.477748 14.4166 2.04767 11.0558 4.55472 8.45573C7.06178 5.8557 10.3632 4.16447 13.9381 3.64893V2.32268C13.6301 2.32268 13.3347 2.20033 13.1169 1.98253C12.8991 1.76474 12.7768 1.46935 12.7768 1.16134ZM16.2608 5.8067C14.4307 5.80686 12.6185 6.16747 10.9278 6.86797C9.23701 7.56846 7.70079 8.59512 6.40681 9.88931C3.7935 12.5031 2.32554 16.0479 2.32585 19.744C2.32615 23.44 3.79471 26.9846 6.40845 29.5979C9.02219 32.2112 12.567 33.6792 16.2631 33.6789C19.9592 33.6786 23.5038 32.21 26.1171 29.5963C28.7304 26.9825 30.1983 23.4377 30.198 19.7416C30.1977 16.0456 28.7292 12.501 26.1154 9.88767C23.5017 7.27436 19.9569 5.8064 16.2608 5.8067Z"/>
</mask>
<path d="M12.7768 1.16134C12.7768 0.853334 12.8991 0.557942 13.1169 0.340149C13.3347 0.122355 13.6301 0 13.9381 0H18.5835C18.8915 0 19.1869 0.122355 19.4046 0.340149C19.6224 0.557942 19.7448 0.853334 19.7448 1.16134C19.7448 1.46935 19.6224 1.76474 19.4046 1.98253C19.1869 2.20033 18.8915 2.32268 18.5835 2.32268V3.64661C21.7423 4.10186 24.6085 5.4583 26.9079 7.45581C26.9171 7.44563 26.9264 7.43556 26.9358 7.42561L27.758 6.60338L26.9358 5.78348C26.7177 5.56572 26.5951 5.27025 26.5949 4.96207C26.5947 4.65389 26.7169 4.35825 26.9347 4.14018C27.1524 3.92211 27.4479 3.79948 27.7561 3.79926C28.0642 3.79904 28.3599 3.92126 28.578 4.13902L31.8622 7.42561C31.9731 7.53274 32.0616 7.66089 32.1225 7.80258C32.1833 7.94427 32.2154 8.09666 32.2167 8.25086C32.2181 8.40506 32.1887 8.55799 32.1303 8.70071C32.0719 8.84344 31.9857 8.9731 31.8766 9.08214C31.7676 9.19118 31.6379 9.27742 31.4952 9.33581C31.3525 9.3942 31.1995 9.42359 31.0453 9.42225C30.8911 9.42091 30.7387 9.38887 30.5971 9.32801C30.4554 9.26714 30.3272 9.17867 30.2201 9.06775L29.4002 8.24552L28.578 9.06775C28.568 9.07721 28.558 9.0865 28.5478 9.09562C30.9127 11.8256 32.3012 15.2653 32.4943 18.872C32.6874 22.4787 31.6741 26.047 29.6142 29.0139C27.5542 31.9807 24.5651 34.1772 21.1183 35.2568C17.6716 36.3363 13.9635 36.2374 10.5792 34.9757C7.19485 33.714 4.32701 31.3613 2.42817 28.2888C0.529337 25.2164 -0.29238 21.5991 0.0926842 18.0079C0.477748 14.4166 2.04767 11.0558 4.55472 8.45573C7.06178 5.8557 10.3632 4.16447 13.9381 3.64893V2.32268C13.6301 2.32268 13.3347 2.20033 13.1169 1.98253C12.8991 1.76474 12.7768 1.46935 12.7768 1.16134ZM16.2608 5.8067C14.4307 5.80686 12.6185 6.16747 10.9278 6.86797C9.23701 7.56846 7.70079 8.59512 6.40681 9.88931C3.7935 12.5031 2.32554 16.0479 2.32585 19.744C2.32615 23.44 3.79471 26.9846 6.40845 29.5979C9.02219 32.2112 12.567 33.6792 16.2631 33.6789C19.9592 33.6786 23.5038 32.21 26.1171 29.5963C28.7304 26.9825 30.1983 23.4377 30.198 19.7416C30.1977 16.0456 28.7292 12.501 26.1154 9.88767C23.5017 7.27436 19.9569 5.8064 16.2608 5.8067Z" fill="white"/>
<path d="M13.9381 0V-4V0ZM18.5835 0V-4V0ZM18.5835 2.32268V-1.67732H14.5835V2.32268H18.5835ZM18.5835 3.64661H14.5835V7.11147L18.0129 7.60571L18.5835 3.64661ZM26.9079 7.45581L24.2847 10.4755L27.2512 13.0525L29.8805 10.1324L26.9079 7.45581ZM26.9358 7.42561L24.1074 4.59719L24.0683 4.63623L24.0304 4.67634L26.9358 7.42561ZM27.758 6.60338L30.5865 9.43181L33.4189 6.59938L30.5825 3.77096L27.758 6.60338ZM26.9358 5.78348L24.1094 8.6139L24.1114 8.6159L26.9358 5.78348ZM28.578 4.13902L31.4074 1.31159L31.4044 1.30859L28.578 4.13902ZM31.8622 7.42561L29.0328 10.253L29.0579 10.2781L29.0834 10.3028L31.8622 7.42561ZM30.2201 9.06775L33.0972 6.2889L33.0751 6.26593L33.0525 6.24332L30.2201 9.06775ZM29.4002 8.24552L32.2326 5.42109L29.4042 2.58466L26.5718 5.41709L29.4002 8.24552ZM28.578 9.06775L31.3414 11.9596L31.3743 11.9283L31.4064 11.8962L28.578 9.06775ZM28.5478 9.09562L25.8858 6.10997L22.9425 8.73417L25.5244 11.7147L28.5478 9.09562ZM13.9381 3.64893L14.509 7.60798L17.9381 7.11347V3.64893H13.9381ZM13.9381 2.32268H17.9381V-1.67732H13.9381V2.32268ZM6.40681 9.88931L3.57815 7.06112L6.40681 9.88931ZM16.7768 1.16134C16.7768 1.9142 16.4777 2.63623 15.9453 3.16858L10.2885 -2.48828C9.32053 -1.52034 8.77675 -0.207534 8.77675 1.16134H16.7768ZM15.9453 3.16858C15.413 3.70093 14.691 4 13.9381 4V-4C12.5692 -4 11.2564 -3.45622 10.2885 -2.48828L15.9453 3.16858ZM13.9381 4H18.5835V-4H13.9381V4ZM18.5835 4C17.8306 4 17.1086 3.70093 16.5762 3.16858L22.2331 -2.48828C21.2651 -3.45622 19.9523 -4 18.5835 -4V4ZM16.5762 3.16858C16.0439 2.63622 15.7448 1.91419 15.7448 1.16134H23.7448C23.7448 -0.207524 23.201 -1.52033 22.2331 -2.48828L16.5762 3.16858ZM15.7448 1.16134C15.7448 0.408489 16.0439 -0.313537 16.5762 -0.845894L22.2331 4.81096C23.201 3.84301 23.7448 2.53021 23.7448 1.16134H15.7448ZM16.5762 -0.845894C17.1086 -1.37825 17.8306 -1.67732 18.5835 -1.67732V6.32268C19.9523 6.32268 21.2651 5.7789 22.2331 4.81096L16.5762 -0.845894ZM14.5835 2.32268V3.64661H22.5835V2.32268H14.5835ZM18.0129 7.60571C20.3936 7.94881 22.5513 8.96973 24.2847 10.4755L29.5311 4.43607C26.6657 1.94687 23.091 0.254899 19.154 -0.312487L18.0129 7.60571ZM29.8805 10.1324C29.8676 10.1467 29.8545 10.1609 29.8412 10.1749L24.0304 4.67634C23.9983 4.71023 23.9666 4.74454 23.9354 4.77926L29.8805 10.1324ZM29.7642 10.254L30.5865 9.43181L24.9296 3.77496L24.1074 4.59719L29.7642 10.254ZM30.5825 3.77096L29.7602 2.95105L24.1114 8.6159L24.9336 9.43581L30.5825 3.77096ZM29.7622 2.95305C30.2948 3.48491 30.5944 4.20655 30.5949 4.95924L22.5949 4.9649C22.5959 6.33394 23.1406 7.64653 24.1094 8.6139L29.7622 2.95305ZM30.5949 4.95924C30.5954 5.71194 30.2969 6.43401 29.7651 6.96661L24.1042 1.31375C23.1369 2.28249 22.5939 3.59584 22.5949 4.9649L30.5949 4.95924ZM29.7651 6.96661C29.2332 7.49921 28.5116 7.79873 27.7589 7.79926L27.7532 -0.200738C26.3842 -0.199771 25.0716 0.34501 24.1042 1.31375L29.7651 6.96661ZM27.7589 7.79926C27.0062 7.79979 26.2841 7.5013 25.7515 6.96944L31.4044 1.30859C30.4356 0.341215 29.1223 -0.201706 27.7532 -0.200738L27.7589 7.79926ZM25.7485 6.96644L29.0328 10.253L34.6917 4.59819L31.4074 1.31159L25.7485 6.96644ZM29.0834 10.3028C28.8123 10.0409 28.596 9.72769 28.4472 9.38135L35.7977 6.22381C35.5272 5.59409 35.134 5.02457 34.6411 4.54846L29.0834 10.3028ZM28.4472 9.38135C28.2985 9.035 28.2201 8.66251 28.2169 8.28562L36.2166 8.2161C36.2106 7.5308 36.0682 6.85353 35.7977 6.22381L28.4472 9.38135ZM28.2169 8.28562C28.2136 7.90871 28.2854 7.53491 28.4282 7.18605L35.8324 10.2154C36.0919 9.58106 36.2225 8.90142 36.2166 8.2161L28.2169 8.28562ZM28.4282 7.18605C28.5709 6.8372 28.7817 6.52025 29.0482 6.25372L34.705 11.9106C35.1897 11.4259 35.5729 10.8497 35.8324 10.2154L28.4282 7.18605ZM29.0482 6.25372C29.3147 5.98718 29.6317 5.7764 29.9805 5.63368L33.0098 13.0379C33.6442 12.7784 34.2204 12.3952 34.705 11.9106L29.0482 6.25372ZM29.9805 5.63368C30.3294 5.49095 30.7032 5.41912 31.0801 5.4224L31.0106 13.4221C31.6959 13.4281 32.3756 13.2975 33.0098 13.0379L29.9805 5.63368ZM31.0801 5.4224C31.457 5.42567 31.8295 5.50398 32.1758 5.65275L29.0183 13.0033C29.648 13.2738 30.3253 13.4161 31.0106 13.4221L31.0801 5.4224ZM32.1758 5.65275C32.5222 5.80153 32.8354 6.0178 33.0972 6.2889L27.3429 11.8466C27.819 12.3395 28.3886 12.7327 29.0183 13.0033L32.1758 5.65275ZM33.0525 6.24332L32.2326 5.42109L26.5678 11.0699L27.3877 11.8922L33.0525 6.24332ZM26.5718 5.41709L25.7495 6.23932L31.4064 11.8962L32.2286 11.0739L26.5718 5.41709ZM25.8145 6.17585C25.838 6.1534 25.8617 6.13144 25.8858 6.10997L31.2097 12.0813C31.2542 12.0416 31.2981 12.001 31.3414 11.9596L25.8145 6.17585ZM25.5244 11.7147C27.3075 13.773 28.3544 16.3665 28.5 19.0859L36.4886 18.6582C36.248 14.1641 34.5178 9.87818 31.5711 6.47658L25.5244 11.7147ZM28.5 19.0859C28.6456 21.8052 27.8816 24.4957 26.3285 26.7326L32.8998 31.2951C35.4665 27.5984 36.7292 23.1522 36.4886 18.6582L28.5 19.0859ZM26.3285 26.7326C24.7753 28.9696 22.5216 30.6257 19.9228 31.4396L22.3139 39.0739C26.6086 37.7288 30.3332 34.9919 32.8998 31.2951L26.3285 26.7326ZM19.9228 31.4396C17.324 32.2536 14.5282 32.179 11.9765 31.2277L9.18186 38.7237C13.3988 40.2958 18.0191 40.4191 22.3139 39.0739L19.9228 31.4396ZM11.9765 31.2277C9.42477 30.2764 7.26248 28.5025 5.8308 26.1859L-0.97445 30.3917C1.39154 34.2201 4.96493 37.1516 9.18186 38.7237L11.9765 31.2277ZM5.8308 26.1859C4.39911 23.8694 3.77956 21.142 4.06989 18.4343L-3.88452 17.5814C-4.36432 22.0562 -3.34044 26.5634 -0.97445 30.3917L5.8308 26.1859ZM4.06989 18.4343C4.36022 15.7266 5.54391 13.1926 7.43417 11.2322L1.67528 5.67927C-1.44857 8.91897 -3.40472 13.1066 -3.88452 17.5814L4.06989 18.4343ZM7.43417 11.2322C9.32444 9.27183 11.8137 7.99668 14.509 7.60798L13.3671 -0.310111C8.91278 0.332263 4.79912 2.43956 1.67528 5.67927L7.43417 11.2322ZM17.9381 3.64893V2.32268H9.93809V3.64893H17.9381ZM13.9381 -1.67732C14.691 -1.67732 15.413 -1.37825 15.9453 -0.845894L10.2885 4.81096C11.2564 5.7789 12.5692 6.32268 13.9381 6.32268V-1.67732ZM15.9453 -0.845894C16.4777 -0.313544 16.7768 0.40848 16.7768 1.16134H8.77675C8.77675 2.53022 9.32053 3.84302 10.2885 4.81096L15.9453 -0.845894ZM16.2604 1.8067C13.905 1.8069 11.5727 2.27102 9.39671 3.17258L12.4588 10.5634C13.6643 10.0639 14.9563 9.80681 16.2611 9.8067L16.2604 1.8067ZM9.39671 3.17258C7.22068 4.07413 5.24353 5.39546 3.57815 7.06112L9.23547 12.7175C10.158 11.7948 11.2533 11.0628 12.4588 10.5634L9.39671 3.17258ZM3.57815 7.06112C0.214758 10.4251 -1.67455 14.9873 -1.67415 19.7443L6.32585 19.7436C6.32563 17.1084 7.37225 14.581 9.23547 12.7175L3.57815 7.06112ZM-1.67415 19.7443C-1.67376 24.5012 0.216311 29.0632 3.58026 32.4266L9.23664 26.7693C7.37311 24.906 6.32606 22.3788 6.32585 19.7436L-1.67415 19.7443ZM3.58026 32.4266C6.94421 35.79 11.5065 37.6793 16.2634 37.6789L16.2628 29.6789C13.6275 29.6791 11.1002 28.6325 9.23664 26.7693L3.58026 32.4266ZM16.2634 37.6789C21.0204 37.6785 25.5823 35.7884 28.9457 32.4245L23.2884 26.7681C21.4252 28.6316 18.898 29.6787 16.2628 29.6789L16.2634 37.6789ZM28.9457 32.4245C32.3091 29.0605 34.1984 24.4982 34.198 19.7413L26.198 19.742C26.1982 22.3772 25.1516 24.9045 23.2884 26.7681L28.9457 32.4245ZM34.198 19.7413C34.1976 14.9844 32.3076 10.4224 28.9436 7.05901L23.2872 12.7163C25.1508 14.5796 26.1978 17.1067 26.198 19.742L34.198 19.7413ZM28.9436 7.05901C25.5797 3.69562 21.0174 1.80631 16.2604 1.8067L16.2611 9.8067C18.8963 9.80648 21.4237 10.8531 23.2872 12.7163L28.9436 7.05901Z" fill="white" mask="url(#path-3-inside-2_1_34)"/>
</svg>
